<svg xmlns="http://www.w3.org/2000/svg" width="860" height="220" viewBox="0 0 860 220" role="img" aria-labelledby="cardTitle" fill="none"><title id="cardTitle">Contribution activity: 329 contributions over the last 12 months, peaking at 42 in one week</title><style>text{font-family:'JetBrains Mono','SFMono-Regular',ui-monospace,Menlo,Consolas,monospace;dominant-baseline:auto}</style><defs><linearGradient id="activityFill" x1="0" y1="0" x2="0" y2="1"><stop offset="0%" stop-color="#6742C0" stop-opacity="0.45"/><stop offset="100%" stop-color="#6742C0" stop-opacity="0"/></linearGradient></defs><rect x="0.5" y="0.5" width="859" height="219" rx="12" fill="#FFFFFF" stroke="#DED5F2" stroke-width="1" /><text x="24" y="38" fill="#6742C0" font-size="13" font-weight="700" text-anchor="start" letter-spacing="1.6">CONTRIBUTION ACTIVITY</text><text x="836" y="38" fill="#5F5677" font-size="12" font-weight="400" text-anchor="end">329 contributions · last 12 months</text><rect x="32" y="176" width="796" height="1" fill="#E7E0F7" /><text x="26" y="180" fill="#5F5677" font-size="10" font-weight="400" text-anchor="end" opacity="0.75">0</text><rect x="32" y="119" width="796" height="1" fill="#E7E0F7" /><text x="26" y="123" fill="#5F5677" font-size="10" font-weight="400" text-anchor="end" opacity="0.75">21</text><rect x="32" y="62" width="796" height="1" fill="#E7E0F7" /><text x="26" y="66" fill="#5F5677" font-size="10" font-weight="400" text-anchor="end" opacity="0.75">42</text><path d="M32,176 C34.95,176 43.79,181.43 49.69,176 C55.59,170.57 61.48,143.43 67.38,143.43 C73.27,143.43 79.17,170.57 85.07,176 C90.96,181.43 96.86,195 102.76,176 C108.65,157 114.55,62 120.44,62 C126.34,62 132.24,157 138.13,176 C144.03,195 149.93,176 155.82,176 C161.72,176 167.61,176 173.51,176 C179.41,176 185.3,176 191.2,176 C197.1,176 202.99,180.07 208.89,176 C214.79,171.93 220.68,158.81 226.58,151.57 C232.47,144.33 238.37,128.5 244.27,132.57 C250.16,136.64 256.06,170.12 261.96,176 C267.85,181.88 273.75,170.12 279.64,167.86 C285.54,165.6 291.44,161.52 297.33,162.43 C303.23,163.33 309.13,175.55 315.02,173.29 C320.92,171.02 326.81,148.4 332.71,148.86 C338.61,149.31 344.5,181.43 350.4,176 C356.3,170.57 362.19,123.98 368.09,116.29 C373.99,108.6 379.88,119.9 385.78,129.86 C391.67,139.81 397.57,168.31 403.47,176 C409.36,183.69 415.26,176.45 421.16,176 C427.05,175.55 432.95,173.29 438.84,173.29 C444.74,173.29 450.64,177.81 456.53,176 C462.43,174.19 468.33,162.43 474.22,162.43 C480.12,162.43 486.01,174.19 491.91,176 C497.81,177.81 503.7,173.29 509.6,173.29 C515.5,173.29 521.39,175.55 527.29,176 C533.19,176.45 539.08,176 544.98,176 C550.87,176 556.77,176 562.67,176 C568.56,176 574.46,176 580.36,176 C586.25,176 592.15,183.69 598.04,176 C603.94,168.31 609.84,145.24 615.73,129.86 C621.63,114.48 627.53,85.98 633.42,83.71 C639.32,81.45 645.21,111.76 651.11,116.29 C657.01,120.81 662.9,105.88 668.8,110.86 C674.7,115.83 680.59,135.29 686.49,146.14 C692.39,157 698.28,171.02 704.18,176 C710.07,180.98 715.97,183.69 721.87,176 C727.76,168.31 733.66,141.62 739.56,129.86 C745.45,118.1 751.35,103.62 757.24,105.43 C763.14,107.24 769.04,133.02 774.93,140.71 C780.83,148.4 786.73,149.31 792.62,151.57 C798.52,153.83 804.41,152.02 810.31,154.29 C816.21,156.55 825.05,163.33 828,165.14 L828,176 L32,176 Z" fill="url(#activityFill)" /><path d="M32,176 C34.95,176 43.79,181.43 49.69,176 C55.59,170.57 61.48,143.43 67.38,143.43 C73.27,143.43 79.17,170.57 85.07,176 C90.96,181.43 96.86,195 102.76,176 C108.65,157 114.55,62 120.44,62 C126.34,62 132.24,157 138.13,176 C144.03,195 149.93,176 155.82,176 C161.72,176 167.61,176 173.51,176 C179.41,176 185.3,176 191.2,176 C197.1,176 202.99,180.07 208.89,176 C214.79,171.93 220.68,158.81 226.58,151.57 C232.47,144.33 238.37,128.5 244.27,132.57 C250.16,136.64 256.06,170.12 261.96,176 C267.85,181.88 273.75,170.12 279.64,167.86 C285.54,165.6 291.44,161.52 297.33,162.43 C303.23,163.33 309.13,175.55 315.02,173.29 C320.92,171.02 326.81,148.4 332.71,148.86 C338.61,149.31 344.5,181.43 350.4,176 C356.3,170.57 362.19,123.98 368.09,116.29 C373.99,108.6 379.88,119.9 385.78,129.86 C391.67,139.81 397.57,168.31 403.47,176 C409.36,183.69 415.26,176.45 421.16,176 C427.05,175.55 432.95,173.29 438.84,173.29 C444.74,173.29 450.64,177.81 456.53,176 C462.43,174.19 468.33,162.43 474.22,162.43 C480.12,162.43 486.01,174.19 491.91,176 C497.81,177.81 503.7,173.29 509.6,173.29 C515.5,173.29 521.39,175.55 527.29,176 C533.19,176.45 539.08,176 544.98,176 C550.87,176 556.77,176 562.67,176 C568.56,176 574.46,176 580.36,176 C586.25,176 592.15,183.69 598.04,176 C603.94,168.31 609.84,145.24 615.73,129.86 C621.63,114.48 627.53,85.98 633.42,83.71 C639.32,81.45 645.21,111.76 651.11,116.29 C657.01,120.81 662.9,105.88 668.8,110.86 C674.7,115.83 680.59,135.29 686.49,146.14 C692.39,157 698.28,171.02 704.18,176 C710.07,180.98 715.97,183.69 721.87,176 C727.76,168.31 733.66,141.62 739.56,129.86 C745.45,118.1 751.35,103.62 757.24,105.43 C763.14,107.24 769.04,133.02 774.93,140.71 C780.83,148.4 786.73,149.31 792.62,151.57 C798.52,153.83 804.41,152.02 810.31,154.29 C816.21,156.55 825.05,163.33 828,165.14" stroke="#6742C0" stroke-width="2.5" stroke-linecap="round" stroke-linejoin="round" fill="none" /><circle cx="120.44" cy="62" r="5" fill="#FFFFFF" /><circle cx="120.44" cy="62" r="3.5" fill="#1F7F58" /><text x="32" y="198" fill="#5F5677" font-size="10" font-weight="400" text-anchor="start" opacity="0.8">Oct</text><text x="84.48" y="198" fill="#5F5677" font-size="10" font-weight="400" text-anchor="start" opacity="0.8">Nov</text><text x="150.09" y="198" fill="#5F5677" font-size="10" font-weight="400" text-anchor="start" opacity="0.8">Dec</text><text x="217.88" y="198" fill="#5F5677" font-size="10" font-weight="400" text-anchor="start" opacity="0.8">Jan</text><text x="285.67" y="198" fill="#5F5677" font-size="10" font-weight="400" text-anchor="start" opacity="0.8">Feb</text><text x="346.9" y="198" fill="#5F5677" font-size="10" font-weight="400" text-anchor="start" opacity="0.8">Mar</text><text x="414.69" y="198" fill="#5F5677" font-size="10" font-weight="400" text-anchor="start" opacity="0.8">Apr</text><text x="480.3" y="198" fill="#5F5677" font-size="10" font-weight="400" text-anchor="start" opacity="0.8">May</text><text x="548.09" y="198" fill="#5F5677" font-size="10" font-weight="400" text-anchor="start" opacity="0.8">Jun</text><text x="613.69" y="198" fill="#5F5677" font-size="10" font-weight="400" text-anchor="start" opacity="0.8">Jul</text><text x="681.48" y="198" fill="#5F5677" font-size="10" font-weight="400" text-anchor="start" opacity="0.8">Aug</text><text x="749.27" y="198" fill="#5F5677" font-size="10" font-weight="400" text-anchor="start" opacity="0.8">Sep</text></svg>