<svg xmlns="http://www.w3.org/2000/svg" width="860" height="220" viewBox="0 0 860 220" role="img" aria-labelledby="cardTitle" fill="none"><title id="cardTitle">Contribution activity: 307 contributions over the last 12 months, peaking at 42 in one week</title><style>text{font-family:'JetBrains Mono','SFMono-Regular',ui-monospace,Menlo,Consolas,monospace;dominant-baseline:auto}</style><defs><linearGradient id="activityFill" x1="0" y1="0" x2="0" y2="1"><stop offset="0%" stop-color="#6742C0" stop-opacity="0.45"/><stop offset="100%" stop-color="#6742C0" stop-opacity="0"/></linearGradient></defs><rect x="0.5" y="0.5" width="859" height="219" rx="12" fill="#FFFFFF" stroke="#DED5F2" stroke-width="1" /><text x="24" y="38" fill="#6742C0" font-size="13" font-weight="700" text-anchor="start" letter-spacing="1.6">CONTRIBUTION ACTIVITY</text><text x="836" y="38" fill="#5F5677" font-size="12" font-weight="400" text-anchor="end">307 contributions · last 12 months</text><rect x="32" y="176" width="796" height="1" fill="#E7E0F7" /><text x="26" y="180" fill="#5F5677" font-size="10" font-weight="400" text-anchor="end" opacity="0.75">0</text><rect x="32" y="119" width="796" height="1" fill="#E7E0F7" /><text x="26" y="123" fill="#5F5677" font-size="10" font-weight="400" text-anchor="end" opacity="0.75">21</text><rect x="32" y="62" width="796" height="1" fill="#E7E0F7" /><text x="26" y="66" fill="#5F5677" font-size="10" font-weight="400" text-anchor="end" opacity="0.75">42</text><path d="M32,176 C34.95,176 43.79,176 49.69,176 C55.59,176 61.48,176 67.38,176 C73.27,176 79.17,176 85.07,176 C90.96,176 96.86,181.43 102.76,176 C108.65,170.57 114.55,143.43 120.44,143.43 C126.34,143.43 132.24,170.57 138.13,176 C144.03,181.43 149.93,195 155.82,176 C161.72,157 167.61,62 173.51,62 C179.41,62 185.3,157 191.2,176 C197.1,195 202.99,176 208.89,176 C214.79,176 220.68,176 226.58,176 C232.47,176 238.37,176 244.27,176 C250.16,176 256.06,180.07 261.96,176 C267.85,171.93 273.75,158.81 279.64,151.57 C285.54,144.33 291.44,128.5 297.33,132.57 C303.23,136.64 309.13,171.48 315.02,176 C320.92,180.52 326.81,160.62 332.71,159.71 C338.61,158.81 344.5,168.31 350.4,170.57 C356.3,172.83 362.19,176.9 368.09,173.29 C373.99,169.67 379.88,148.4 385.78,148.86 C391.67,149.31 397.57,181.43 403.47,176 C409.36,170.57 415.26,123.52 421.16,116.29 C427.05,109.05 432.95,122.62 438.84,132.57 C444.74,142.52 450.64,168.76 456.53,176 C462.43,183.24 468.33,176.45 474.22,176 C480.12,175.55 486.01,173.29 491.91,173.29 C497.81,173.29 503.7,177.81 509.6,176 C515.5,174.19 521.39,162.43 527.29,162.43 C533.19,162.43 539.08,174.19 544.98,176 C550.87,177.81 556.77,173.29 562.67,173.29 C568.56,173.29 574.46,175.55 580.36,176 C586.25,176.45 592.15,176 598.04,176 C603.94,176 609.84,176 615.73,176 C621.63,176 627.53,176 633.42,176 C639.32,176 645.21,186.86 651.11,176 C657.01,165.14 662.9,123.07 668.8,110.86 C674.7,98.64 680.59,103.62 686.49,102.71 C692.39,101.81 698.28,102.26 704.18,105.43 C710.07,108.6 715.97,114.93 721.87,121.71 C727.76,128.5 733.66,137.1 739.56,146.14 C745.45,155.19 751.35,172.83 757.24,176 C763.14,179.17 769.04,171.02 774.93,165.14 C780.83,159.26 786.73,150.67 792.62,140.71 C798.52,130.76 804.41,105.43 810.31,105.43 C816.21,105.43 825.05,134.83 828,140.71 L828,176 L32,176 Z" fill="url(#activityFill)" /><path d="M32,176 C34.95,176 43.79,176 49.69,176 C55.59,176 61.48,176 67.38,176 C73.27,176 79.17,176 85.07,176 C90.96,176 96.86,181.43 102.76,176 C108.65,170.57 114.55,143.43 120.44,143.43 C126.34,143.43 132.24,170.57 138.13,176 C144.03,181.43 149.93,195 155.82,176 C161.72,157 167.61,62 173.51,62 C179.41,62 185.3,157 191.2,176 C197.1,195 202.99,176 208.89,176 C214.79,176 220.68,176 226.58,176 C232.47,176 238.37,176 244.27,176 C250.16,176 256.06,180.07 261.96,176 C267.85,171.93 273.75,158.81 279.64,151.57 C285.54,144.33 291.44,128.5 297.33,132.57 C303.23,136.64 309.13,171.48 315.02,176 C320.92,180.52 326.81,160.62 332.71,159.71 C338.61,158.81 344.5,168.31 350.4,170.57 C356.3,172.83 362.19,176.9 368.09,173.29 C373.99,169.67 379.88,148.4 385.78,148.86 C391.67,149.31 397.57,181.43 403.47,176 C409.36,170.57 415.26,123.52 421.16,116.29 C427.05,109.05 432.95,122.62 438.84,132.57 C444.74,142.52 450.64,168.76 456.53,176 C462.43,183.24 468.33,176.45 474.22,176 C480.12,175.55 486.01,173.29 491.91,173.29 C497.81,173.29 503.7,177.81 509.6,176 C515.5,174.19 521.39,162.43 527.29,162.43 C533.19,162.43 539.08,174.19 544.98,176 C550.87,177.81 556.77,173.29 562.67,173.29 C568.56,173.29 574.46,175.55 580.36,176 C586.25,176.45 592.15,176 598.04,176 C603.94,176 609.84,176 615.73,176 C621.63,176 627.53,176 633.42,176 C639.32,176 645.21,186.86 651.11,176 C657.01,165.14 662.9,123.07 668.8,110.86 C674.7,98.64 680.59,103.62 686.49,102.71 C692.39,101.81 698.28,102.26 704.18,105.43 C710.07,108.6 715.97,114.93 721.87,121.71 C727.76,128.5 733.66,137.1 739.56,146.14 C745.45,155.19 751.35,172.83 757.24,176 C763.14,179.17 769.04,171.02 774.93,165.14 C780.83,159.26 786.73,150.67 792.62,140.71 C798.52,130.76 804.41,105.43 810.31,105.43 C816.21,105.43 825.05,134.83 828,140.71" stroke="#6742C0" stroke-width="2.5" stroke-linecap="round" stroke-linejoin="round" fill="none" /><circle cx="173.51" cy="62" r="5" fill="#FFFFFF" /><circle cx="173.51" cy="62" r="3.5" fill="#1F7F58" /><text x="32" y="198" fill="#5F5677" font-size="10" font-weight="400" text-anchor="start" opacity="0.8">Sep</text><text x="66.99" y="198" fill="#5F5677" font-size="10" font-weight="400" text-anchor="start" opacity="0.8">Oct</text><text x="134.78" y="198" fill="#5F5677" font-size="10" font-weight="400" text-anchor="start" opacity="0.8">Nov</text><text x="200.38" y="198" fill="#5F5677" font-size="10" font-weight="400" text-anchor="start" opacity="0.8">Dec</text><text x="268.18" y="198" fill="#5F5677" font-size="10" font-weight="400" text-anchor="start" opacity="0.8">Jan</text><text x="335.97" y="198" fill="#5F5677" font-size="10" font-weight="400" text-anchor="start" opacity="0.8">Feb</text><text x="397.2" y="198" fill="#5F5677" font-size="10" font-weight="400" text-anchor="start" opacity="0.8">Mar</text><text x="464.99" y="198" fill="#5F5677" font-size="10" font-weight="400" text-anchor="start" opacity="0.8">Apr</text><text x="530.59" y="198" fill="#5F5677" font-size="10" font-weight="400" text-anchor="start" opacity="0.8">May</text><text x="598.38" y="198" fill="#5F5677" font-size="10" font-weight="400" text-anchor="start" opacity="0.8">Jun</text><text x="663.99" y="198" fill="#5F5677" font-size="10" font-weight="400" text-anchor="start" opacity="0.8">Jul</text><text x="731.78" y="198" fill="#5F5677" font-size="10" font-weight="400" text-anchor="start" opacity="0.8">Aug</text><text x="799.57" y="198" fill="#5F5677" font-size="10" font-weight="400" text-anchor="start" opacity="0.8">Sep</text></svg>