<svg xmlns="http://www.w3.org/2000/svg" width="860" height="220" viewBox="0 0 860 220" role="img" aria-labelledby="cardTitle" fill="none"><title id="cardTitle">Contribution activity: 236 contributions over the last 12 months, peaking at 42 in one week</title><style>text{font-family:'JetBrains Mono','SFMono-Regular',ui-monospace,Menlo,Consolas,monospace;dominant-baseline:auto}</style><defs><linearGradient id="activityFill" x1="0" y1="0" x2="0" y2="1"><stop offset="0%" stop-color="#7C5CD0" stop-opacity="0.45"/><stop offset="100%" stop-color="#7C5CD0" stop-opacity="0"/></linearGradient></defs><rect x="0.5" y="0.5" width="859" height="219" rx="12" fill="#0D0A14" stroke="#2A2140" stroke-width="1" /><text x="24" y="38" fill="#7C5CD0" font-size="13" font-weight="700" text-anchor="start" letter-spacing="1.6">CONTRIBUTION ACTIVITY</text><text x="836" y="38" fill="#A99FC0" font-size="12" font-weight="400" text-anchor="end">236 contributions · last 12 months</text><rect x="32" y="176" width="796" height="1" fill="#221B36" /><text x="26" y="180" fill="#A99FC0" font-size="10" font-weight="400" text-anchor="end" opacity="0.75">0</text><rect x="32" y="119" width="796" height="1" fill="#221B36" /><text x="26" y="123" fill="#A99FC0" font-size="10" font-weight="400" text-anchor="end" opacity="0.75">21</text><rect x="32" y="62" width="796" height="1" fill="#221B36" /><text x="26" y="66" fill="#A99FC0" font-size="10" font-weight="400" text-anchor="end" opacity="0.75">42</text><path d="M32,176 C34.95,176 43.79,176 49.69,176 C55.59,176 61.48,176 67.38,176 C73.27,176 79.17,176 85.07,176 C90.96,176 96.86,176 102.76,176 C108.65,176 114.55,181.43 120.44,176 C126.34,170.57 132.24,143.43 138.13,143.43 C144.03,143.43 149.93,170.57 155.82,176 C161.72,181.43 167.61,176 173.51,176 C179.41,176 185.3,195 191.2,176 C197.1,157 202.99,62 208.89,62 C214.79,62 220.68,157 226.58,176 C232.47,195 238.37,176 244.27,176 C250.16,176 256.06,176 261.96,176 C267.85,176 273.75,176 279.64,176 C285.54,176 291.44,180.98 297.33,176 C303.23,171.02 309.13,152.48 315.02,146.14 C320.92,139.81 326.81,133.02 332.71,138 C338.61,142.98 344.5,173.29 350.4,176 C356.3,178.71 362.19,154.29 368.09,154.29 C373.99,154.29 379.88,173.74 385.78,176 C391.67,178.26 397.57,171.48 403.47,167.86 C409.36,164.24 415.26,156.1 421.16,154.29 C427.05,152.48 432.95,160.17 438.84,157 C444.74,153.83 450.64,139.36 456.53,135.29 C462.43,131.21 468.33,125.79 474.22,132.57 C480.12,139.36 486.01,168.76 491.91,176 C497.81,183.24 503.7,176.45 509.6,176 C515.5,175.55 521.39,174.64 527.29,173.29 C533.19,171.93 539.08,168.31 544.98,167.86 C550.87,167.4 556.77,169.21 562.67,170.57 C568.56,171.93 574.46,175.55 580.36,176 C586.25,176.45 592.15,173.29 598.04,173.29 C603.94,173.29 609.84,175.55 615.73,176 C621.63,176.45 627.53,176 633.42,176 C639.32,176 645.21,176 651.11,176 C657.01,176 662.9,176.45 668.8,176 C674.7,175.55 680.59,191.38 686.49,173.29 C692.39,155.19 698.28,70.14 704.18,67.43 C710.07,64.71 715.97,146.14 721.87,157 C727.76,167.86 733.66,129.86 739.56,132.57 C745.45,135.29 751.35,171.02 757.24,173.29 C763.14,175.55 769.04,145.69 774.93,146.14 C780.83,146.6 786.73,172.83 792.62,176 C798.52,179.17 804.41,171.02 810.31,165.14 C816.21,159.26 825.05,144.79 828,140.71 L828,176 L32,176 Z" fill="url(#activityFill)" /><path d="M32,176 C34.95,176 43.79,176 49.69,176 C55.59,176 61.48,176 67.38,176 C73.27,176 79.17,176 85.07,176 C90.96,176 96.86,176 102.76,176 C108.65,176 114.55,181.43 120.44,176 C126.34,170.57 132.24,143.43 138.13,143.43 C144.03,143.43 149.93,170.57 155.82,176 C161.72,181.43 167.61,176 173.51,176 C179.41,176 185.3,195 191.2,176 C197.1,157 202.99,62 208.89,62 C214.79,62 220.68,157 226.58,176 C232.47,195 238.37,176 244.27,176 C250.16,176 256.06,176 261.96,176 C267.85,176 273.75,176 279.64,176 C285.54,176 291.44,180.98 297.33,176 C303.23,171.02 309.13,152.48 315.02,146.14 C320.92,139.81 326.81,133.02 332.71,138 C338.61,142.98 344.5,173.29 350.4,176 C356.3,178.71 362.19,154.29 368.09,154.29 C373.99,154.29 379.88,173.74 385.78,176 C391.67,178.26 397.57,171.48 403.47,167.86 C409.36,164.24 415.26,156.1 421.16,154.29 C427.05,152.48 432.95,160.17 438.84,157 C444.74,153.83 450.64,139.36 456.53,135.29 C462.43,131.21 468.33,125.79 474.22,132.57 C480.12,139.36 486.01,168.76 491.91,176 C497.81,183.24 503.7,176.45 509.6,176 C515.5,175.55 521.39,174.64 527.29,173.29 C533.19,171.93 539.08,168.31 544.98,167.86 C550.87,167.4 556.77,169.21 562.67,170.57 C568.56,171.93 574.46,175.55 580.36,176 C586.25,176.45 592.15,173.29 598.04,173.29 C603.94,173.29 609.84,175.55 615.73,176 C621.63,176.45 627.53,176 633.42,176 C639.32,176 645.21,176 651.11,176 C657.01,176 662.9,176.45 668.8,176 C674.7,175.55 680.59,191.38 686.49,173.29 C692.39,155.19 698.28,70.14 704.18,67.43 C710.07,64.71 715.97,146.14 721.87,157 C727.76,167.86 733.66,129.86 739.56,132.57 C745.45,135.29 751.35,171.02 757.24,173.29 C763.14,175.55 769.04,145.69 774.93,146.14 C780.83,146.6 786.73,172.83 792.62,176 C798.52,179.17 804.41,171.02 810.31,165.14 C816.21,159.26 825.05,144.79 828,140.71" stroke="#7C5CD0" stroke-width="2.5" stroke-linecap="round" stroke-linejoin="round" fill="none" /><circle cx="208.89" cy="62" r="5" fill="#0D0A14" /><circle cx="208.89" cy="62" r="3.5" fill="#63C69A" /><text x="32" y="198" fill="#A99FC0" font-size="10" font-weight="400" text-anchor="start" opacity="0.8">Sep</text><text x="95.42" y="198" fill="#A99FC0" font-size="10" font-weight="400" text-anchor="start" opacity="0.8">Oct</text><text x="163.21" y="198" fill="#A99FC0" font-size="10" font-weight="400" text-anchor="start" opacity="0.8">Nov</text><text x="228.81" y="198" fill="#A99FC0" font-size="10" font-weight="400" text-anchor="start" opacity="0.8">Dec</text><text x="296.6" y="198" fill="#A99FC0" font-size="10" font-weight="400" text-anchor="start" opacity="0.8">Jan</text><text x="364.4" y="198" fill="#A99FC0" font-size="10" font-weight="400" text-anchor="start" opacity="0.8">Feb</text><text x="425.63" y="198" fill="#A99FC0" font-size="10" font-weight="400" text-anchor="start" opacity="0.8">Mar</text><text x="493.42" y="198" fill="#A99FC0" font-size="10" font-weight="400" text-anchor="start" opacity="0.8">Apr</text><text x="559.02" y="198" fill="#A99FC0" font-size="10" font-weight="400" text-anchor="start" opacity="0.8">May</text><text x="626.81" y="198" fill="#A99FC0" font-size="10" font-weight="400" text-anchor="start" opacity="0.8">Jun</text><text x="692.42" y="198" fill="#A99FC0" font-size="10" font-weight="400" text-anchor="start" opacity="0.8">Jul</text><text x="760.21" y="198" fill="#A99FC0" font-size="10" font-weight="400" text-anchor="start" opacity="0.8">Aug</text></svg>