<svg xmlns="http://www.w3.org/2000/svg" width="860" height="220" viewBox="0 0 860 220" role="img" aria-labelledby="cardTitle" fill="none"><title id="cardTitle">Contribution activity: 325 contributions over the last 12 months, peaking at 46 in one week</title><style>text{font-family:'JetBrains Mono','SFMono-Regular',ui-monospace,Menlo,Consolas,monospace;dominant-baseline:auto}</style><defs><linearGradient id="activityFill" x1="0" y1="0" x2="0" y2="1"><stop offset="0%" stop-color="#7C5CD0" stop-opacity="0.45"/><stop offset="100%" stop-color="#7C5CD0" stop-opacity="0"/></linearGradient></defs><rect x="0.5" y="0.5" width="859" height="219" rx="12" fill="#0D0A14" stroke="#2A2140" stroke-width="1" /><text x="24" y="38" fill="#7C5CD0" font-size="13" font-weight="700" text-anchor="start" letter-spacing="1.6">CONTRIBUTION ACTIVITY</text><text x="836" y="38" fill="#A99FC0" font-size="12" font-weight="400" text-anchor="end">325 contributions · last 12 months</text><rect x="32" y="176" width="796" height="1" fill="#221B36" /><text x="26" y="180" fill="#A99FC0" font-size="10" font-weight="400" text-anchor="end" opacity="0.75">0</text><rect x="32" y="119" width="796" height="1" fill="#221B36" /><text x="26" y="123" fill="#A99FC0" font-size="10" font-weight="400" text-anchor="end" opacity="0.75">23</text><rect x="32" y="62" width="796" height="1" fill="#221B36" /><text x="26" y="66" fill="#A99FC0" font-size="10" font-weight="400" text-anchor="end" opacity="0.75">46</text><path d="M32,176 C34.95,176 43.79,180.96 49.69,176 C55.59,171.04 61.48,146.26 67.38,146.26 C73.27,146.26 79.17,171.04 85.07,176 C90.96,180.96 96.86,177.24 102.76,176 C108.65,174.76 114.55,184.67 120.44,168.57 C126.34,152.46 132.24,78.11 138.13,79.35 C144.03,80.59 149.93,159.89 155.82,176 C161.72,192.11 167.61,176 173.51,176 C179.41,176 185.3,176 191.2,176 C197.1,176 202.99,176.83 208.89,176 C214.79,175.17 220.68,176.41 226.58,171.04 C232.47,165.67 238.37,147.09 244.27,143.78 C250.16,140.48 256.06,145.85 261.96,151.22 C267.85,156.59 273.75,175.17 279.64,176 C285.54,176.83 291.44,156.17 297.33,156.17 C303.23,156.17 309.13,175.59 315.02,176 C320.92,176.41 326.81,160.3 332.71,158.65 C338.61,157 344.5,166.09 350.4,166.09 C356.3,166.09 362.19,163.2 368.09,158.65 C373.99,154.11 379.88,142.54 385.78,138.83 C391.67,135.11 397.57,130.15 403.47,136.35 C409.36,142.54 415.26,169.39 421.16,176 C427.05,182.61 432.95,176.41 438.84,176 C444.74,175.59 450.64,174.76 456.53,173.52 C462.43,172.28 468.33,168.98 474.22,168.57 C480.12,168.15 486.01,169.8 491.91,171.04 C497.81,172.28 503.7,175.59 509.6,176 C515.5,176.41 521.39,173.52 527.29,173.52 C533.19,173.52 539.08,175.59 544.98,176 C550.87,176.41 556.77,176 562.67,176 C568.56,176 574.46,176 580.36,176 C586.25,176 592.15,176.83 598.04,176 C603.94,175.17 609.84,190.04 615.73,171.04 C621.63,152.04 627.53,62.41 633.42,62 C639.32,61.59 645.21,163.61 651.11,168.57 C657.01,173.52 662.9,95.46 668.8,91.74 C674.7,88.02 680.59,136.76 686.49,146.26 C692.39,155.76 698.28,143.78 704.18,148.74 C710.07,153.7 715.97,177.65 721.87,176 C727.76,174.35 733.66,139.65 739.56,138.83 C745.45,138 751.35,180.96 757.24,171.04 C763.14,161.13 769.04,78.52 774.93,79.35 C780.83,80.17 786.73,164.85 792.62,176 C798.52,187.15 804.41,148.74 810.31,146.26 C816.21,143.78 825.05,158.65 828,161.13 L828,176 L32,176 Z" fill="url(#activityFill)" /><path d="M32,176 C34.95,176 43.79,180.96 49.69,176 C55.59,171.04 61.48,146.26 67.38,146.26 C73.27,146.26 79.17,171.04 85.07,176 C90.96,180.96 96.86,177.24 102.76,176 C108.65,174.76 114.55,184.67 120.44,168.57 C126.34,152.46 132.24,78.11 138.13,79.35 C144.03,80.59 149.93,159.89 155.82,176 C161.72,192.11 167.61,176 173.51,176 C179.41,176 185.3,176 191.2,176 C197.1,176 202.99,176.83 208.89,176 C214.79,175.17 220.68,176.41 226.58,171.04 C232.47,165.67 238.37,147.09 244.27,143.78 C250.16,140.48 256.06,145.85 261.96,151.22 C267.85,156.59 273.75,175.17 279.64,176 C285.54,176.83 291.44,156.17 297.33,156.17 C303.23,156.17 309.13,175.59 315.02,176 C320.92,176.41 326.81,160.3 332.71,158.65 C338.61,157 344.5,166.09 350.4,166.09 C356.3,166.09 362.19,163.2 368.09,158.65 C373.99,154.11 379.88,142.54 385.78,138.83 C391.67,135.11 397.57,130.15 403.47,136.35 C409.36,142.54 415.26,169.39 421.16,176 C427.05,182.61 432.95,176.41 438.84,176 C444.74,175.59 450.64,174.76 456.53,173.52 C462.43,172.28 468.33,168.98 474.22,168.57 C480.12,168.15 486.01,169.8 491.91,171.04 C497.81,172.28 503.7,175.59 509.6,176 C515.5,176.41 521.39,173.52 527.29,173.52 C533.19,173.52 539.08,175.59 544.98,176 C550.87,176.41 556.77,176 562.67,176 C568.56,176 574.46,176 580.36,176 C586.25,176 592.15,176.83 598.04,176 C603.94,175.17 609.84,190.04 615.73,171.04 C621.63,152.04 627.53,62.41 633.42,62 C639.32,61.59 645.21,163.61 651.11,168.57 C657.01,173.52 662.9,95.46 668.8,91.74 C674.7,88.02 680.59,136.76 686.49,146.26 C692.39,155.76 698.28,143.78 704.18,148.74 C710.07,153.7 715.97,177.65 721.87,176 C727.76,174.35 733.66,139.65 739.56,138.83 C745.45,138 751.35,180.96 757.24,171.04 C763.14,161.13 769.04,78.52 774.93,79.35 C780.83,80.17 786.73,164.85 792.62,176 C798.52,187.15 804.41,148.74 810.31,146.26 C816.21,143.78 825.05,158.65 828,161.13" stroke="#7C5CD0" stroke-width="2.5" stroke-linecap="round" stroke-linejoin="round" fill="none" /><circle cx="633.42" cy="62" r="5" fill="#0D0A14" /><circle cx="633.42" cy="62" r="3.5" fill="#63C69A" /><text x="32" y="198" fill="#A99FC0" font-size="10" font-weight="400" text-anchor="start" opacity="0.8">Oct</text><text x="91.04" y="198" fill="#A99FC0" font-size="10" font-weight="400" text-anchor="start" opacity="0.8">Nov</text><text x="156.65" y="198" fill="#A99FC0" font-size="10" font-weight="400" text-anchor="start" opacity="0.8">Dec</text><text x="224.44" y="198" fill="#A99FC0" font-size="10" font-weight="400" text-anchor="start" opacity="0.8">Jan</text><text x="292.23" y="198" fill="#A99FC0" font-size="10" font-weight="400" text-anchor="start" opacity="0.8">Feb</text><text x="353.46" y="198" fill="#A99FC0" font-size="10" font-weight="400" text-anchor="start" opacity="0.8">Mar</text><text x="421.25" y="198" fill="#A99FC0" font-size="10" font-weight="400" text-anchor="start" opacity="0.8">Apr</text><text x="486.86" y="198" fill="#A99FC0" font-size="10" font-weight="400" text-anchor="start" opacity="0.8">May</text><text x="554.65" y="198" fill="#A99FC0" font-size="10" font-weight="400" text-anchor="start" opacity="0.8">Jun</text><text x="620.25" y="198" fill="#A99FC0" font-size="10" font-weight="400" text-anchor="start" opacity="0.8">Jul</text><text x="688.04" y="198" fill="#A99FC0" font-size="10" font-weight="400" text-anchor="start" opacity="0.8">Aug</text><text x="755.84" y="198" fill="#A99FC0" font-size="10" font-weight="400" text-anchor="start" opacity="0.8">Sep</text></svg>