<svg xmlns="http://www.w3.org/2000/svg" width="860" height="220" viewBox="0 0 860 220" role="img" aria-labelledby="cardTitle" fill="none"><title id="cardTitle">Contribution activity: 329 contributions over the last 12 months, peaking at 44 in one week</title><style>text{font-family:'JetBrains Mono','SFMono-Regular',ui-monospace,Menlo,Consolas,monospace;dominant-baseline:auto}</style><defs><linearGradient id="activityFill" x1="0" y1="0" x2="0" y2="1"><stop offset="0%" stop-color="#6742C0" stop-opacity="0.45"/><stop offset="100%" stop-color="#6742C0" stop-opacity="0"/></linearGradient></defs><rect x="0.5" y="0.5" width="859" height="219" rx="12" fill="#FFFFFF" stroke="#DED5F2" stroke-width="1" /><text x="24" y="38" fill="#6742C0" font-size="13" font-weight="700" text-anchor="start" letter-spacing="1.6">CONTRIBUTION ACTIVITY</text><text x="836" y="38" fill="#5F5677" font-size="12" font-weight="400" text-anchor="end">329 contributions · last 12 months</text><rect x="32" y="176" width="796" height="1" fill="#E7E0F7" /><text x="26" y="180" fill="#5F5677" font-size="10" font-weight="400" text-anchor="end" opacity="0.75">0</text><rect x="32" y="119" width="796" height="1" fill="#E7E0F7" /><text x="26" y="123" fill="#5F5677" font-size="10" font-weight="400" text-anchor="end" opacity="0.75">22</text><rect x="32" y="62" width="796" height="1" fill="#E7E0F7" /><text x="26" y="66" fill="#5F5677" font-size="10" font-weight="400" text-anchor="end" opacity="0.75">44</text><path d="M32,176 C34.95,176 43.79,181.18 49.69,176 C55.59,170.82 61.48,144.91 67.38,144.91 C73.27,144.91 79.17,170.82 85.07,176 C90.96,181.18 96.86,194.14 102.76,176 C108.65,157.86 114.55,67.18 120.44,67.18 C126.34,67.18 132.24,157.86 138.13,176 C144.03,194.14 149.93,176 155.82,176 C161.72,176 167.61,176 173.51,176 C179.41,176 185.3,176 191.2,176 C197.1,176 202.99,180.75 208.89,176 C214.79,171.25 220.68,153.55 226.58,147.5 C232.47,141.45 238.37,134.98 244.27,139.73 C250.16,144.48 256.06,173.41 261.96,176 C267.85,178.59 273.75,155.27 279.64,155.27 C285.54,155.27 291.44,172.98 297.33,176 C303.23,179.02 309.13,177.73 315.02,173.41 C320.92,169.09 326.81,149.66 332.71,150.09 C338.61,150.52 344.5,181.61 350.4,176 C356.3,170.39 362.19,123.32 368.09,116.41 C373.99,109.5 379.88,124.61 385.78,134.55 C391.67,144.48 397.57,169.09 403.47,176 C409.36,182.91 415.26,176.43 421.16,176 C427.05,175.57 432.95,173.41 438.84,173.41 C444.74,173.41 450.64,177.73 456.53,176 C462.43,174.27 468.33,163.05 474.22,163.05 C480.12,163.05 486.01,174.27 491.91,176 C497.81,177.73 503.7,173.41 509.6,173.41 C515.5,173.41 521.39,175.57 527.29,176 C533.19,176.43 539.08,176 544.98,176 C550.87,176 556.77,176 562.67,176 C568.56,176 574.46,176 580.36,176 C586.25,176 592.15,195 598.04,176 C603.94,157 609.84,65.02 615.73,62 C621.63,58.98 627.53,153.55 633.42,157.86 C639.32,162.18 645.21,90.07 651.11,87.91 C657.01,85.75 662.9,134.98 668.8,144.91 C674.7,154.84 680.59,142.32 686.49,147.5 C692.39,152.68 698.28,172.98 704.18,176 C710.07,179.02 715.97,171.25 721.87,165.64 C727.76,160.02 733.66,151.82 739.56,142.32 C745.45,132.82 751.35,108.64 757.24,108.64 C763.14,108.64 769.04,136.27 774.93,142.32 C780.83,148.36 786.73,141.89 792.62,144.91 C798.52,147.93 804.41,156.57 810.31,160.45 C816.21,164.34 825.05,166.93 828,168.23 L828,176 L32,176 Z" fill="url(#activityFill)" /><path d="M32,176 C34.95,176 43.79,181.18 49.69,176 C55.59,170.82 61.48,144.91 67.38,144.91 C73.27,144.91 79.17,170.82 85.07,176 C90.96,181.18 96.86,194.14 102.76,176 C108.65,157.86 114.55,67.18 120.44,67.18 C126.34,67.18 132.24,157.86 138.13,176 C144.03,194.14 149.93,176 155.82,176 C161.72,176 167.61,176 173.51,176 C179.41,176 185.3,176 191.2,176 C197.1,176 202.99,180.75 208.89,176 C214.79,171.25 220.68,153.55 226.58,147.5 C232.47,141.45 238.37,134.98 244.27,139.73 C250.16,144.48 256.06,173.41 261.96,176 C267.85,178.59 273.75,155.27 279.64,155.27 C285.54,155.27 291.44,172.98 297.33,176 C303.23,179.02 309.13,177.73 315.02,173.41 C320.92,169.09 326.81,149.66 332.71,150.09 C338.61,150.52 344.5,181.61 350.4,176 C356.3,170.39 362.19,123.32 368.09,116.41 C373.99,109.5 379.88,124.61 385.78,134.55 C391.67,144.48 397.57,169.09 403.47,176 C409.36,182.91 415.26,176.43 421.16,176 C427.05,175.57 432.95,173.41 438.84,173.41 C444.74,173.41 450.64,177.73 456.53,176 C462.43,174.27 468.33,163.05 474.22,163.05 C480.12,163.05 486.01,174.27 491.91,176 C497.81,177.73 503.7,173.41 509.6,173.41 C515.5,173.41 521.39,175.57 527.29,176 C533.19,176.43 539.08,176 544.98,176 C550.87,176 556.77,176 562.67,176 C568.56,176 574.46,176 580.36,176 C586.25,176 592.15,195 598.04,176 C603.94,157 609.84,65.02 615.73,62 C621.63,58.98 627.53,153.55 633.42,157.86 C639.32,162.18 645.21,90.07 651.11,87.91 C657.01,85.75 662.9,134.98 668.8,144.91 C674.7,154.84 680.59,142.32 686.49,147.5 C692.39,152.68 698.28,172.98 704.18,176 C710.07,179.02 715.97,171.25 721.87,165.64 C727.76,160.02 733.66,151.82 739.56,142.32 C745.45,132.82 751.35,108.64 757.24,108.64 C763.14,108.64 769.04,136.27 774.93,142.32 C780.83,148.36 786.73,141.89 792.62,144.91 C798.52,147.93 804.41,156.57 810.31,160.45 C816.21,164.34 825.05,166.93 828,168.23" stroke="#6742C0" stroke-width="2.5" stroke-linecap="round" stroke-linejoin="round" fill="none" /><circle cx="615.73" cy="62" r="5" fill="#FFFFFF" /><circle cx="615.73" cy="62" r="3.5" fill="#1F7F58" /><text x="32" y="198" fill="#5F5677" font-size="10" font-weight="400" text-anchor="start" opacity="0.8">Oct</text><text x="80.11" y="198" fill="#5F5677" font-size="10" font-weight="400" text-anchor="start" opacity="0.8">Nov</text><text x="145.71" y="198" fill="#5F5677" font-size="10" font-weight="400" text-anchor="start" opacity="0.8">Dec</text><text x="213.51" y="198" fill="#5F5677" font-size="10" font-weight="400" text-anchor="start" opacity="0.8">Jan</text><text x="281.3" y="198" fill="#5F5677" font-size="10" font-weight="400" text-anchor="start" opacity="0.8">Feb</text><text x="342.53" y="198" fill="#5F5677" font-size="10" font-weight="400" text-anchor="start" opacity="0.8">Mar</text><text x="410.32" y="198" fill="#5F5677" font-size="10" font-weight="400" text-anchor="start" opacity="0.8">Apr</text><text x="475.92" y="198" fill="#5F5677" font-size="10" font-weight="400" text-anchor="start" opacity="0.8">May</text><text x="543.71" y="198" fill="#5F5677" font-size="10" font-weight="400" text-anchor="start" opacity="0.8">Jun</text><text x="609.32" y="198" fill="#5F5677" font-size="10" font-weight="400" text-anchor="start" opacity="0.8">Jul</text><text x="677.11" y="198" fill="#5F5677" font-size="10" font-weight="400" text-anchor="start" opacity="0.8">Aug</text><text x="744.9" y="198" fill="#5F5677" font-size="10" font-weight="400" text-anchor="start" opacity="0.8">Sep</text></svg>