<svg xmlns="http://www.w3.org/2000/svg" width="860" height="200" viewBox="0 0 860 200" role="img" aria-labelledby="cardTitle" fill="none"><title id="cardTitle">Language mix: TypeScript 20.8%, Go 20.8%, PHP 20.5%, Rust 10.3%, Python 9.7%, Vue 7.3%, C 7.2%, JavaScript 1.4%, Other 2.1%</title><style>text{font-family:'JetBrains Mono','SFMono-Regular',ui-monospace,Menlo,Consolas,monospace;dominant-baseline:auto}</style><rect x="0.5" y="0.5" width="859" height="199" rx="12" fill="#0D0A14" stroke="#2A2140" stroke-width="1" /><text x="24" y="38" fill="#7C5CD0" font-size="13" font-weight="700" text-anchor="start" letter-spacing="1.6">LANGUAGE MIX</text><text x="836" y="38" fill="#A99FC0" font-size="12" font-weight="400" text-anchor="end">TypeScript leads at 20.8%</text><rect x="24" y="64" width="812" height="16" rx="8" fill="#221B36" /><clipPath id="barClip"><rect x="24" y="64" width="812" height="16" rx="8" /></clipPath><g clip-path="url(#barClip)"><rect x="24" y="64" width="168.9" height="16" fill="#3178c6" /><rect x="192.9" y="64" width="168.9" height="16" fill="#00ADD8" /><rect x="361.79" y="64" width="166.46" height="16" fill="#4F5D95" /><rect x="528.25" y="64" width="83.64" height="16" fill="#dea584" /><rect x="611.89" y="64" width="78.76" height="16" fill="#3572A5" /><rect x="690.65" y="64" width="59.28" height="16" fill="#41b883" /><rect x="749.93" y="64" width="58.46" height="16" fill="#555555" /><rect x="808.39" y="64" width="11.37" height="16" fill="#f1e05a" /><rect x="819.76" y="64" width="17.05" height="16" fill="#8B8B8B" /></g><circle cx="30" cy="106" r="5" fill="#3178c6" /><text x="44" y="110" fill="#EDE8F7" font-size="12.5" font-weight="400" text-anchor="start">TypeScript</text><text x="270.67" y="110" fill="#A99FC0" font-size="12.5" font-weight="400" text-anchor="end">20.8%</text><circle cx="300.67" cy="106" r="5" fill="#00ADD8" /><text x="314.67" y="110" fill="#EDE8F7" font-size="12.5" font-weight="400" text-anchor="start">Go</text><text x="541.33" y="110" fill="#A99FC0" font-size="12.5" font-weight="400" text-anchor="end">20.8%</text><circle cx="571.33" cy="106" r="5" fill="#4F5D95" /><text x="585.33" y="110" fill="#EDE8F7" font-size="12.5" font-weight="400" text-anchor="start">PHP</text><text x="812" y="110" fill="#A99FC0" font-size="12.5" font-weight="400" text-anchor="end">20.5%</text><circle cx="30" cy="132" r="5" fill="#dea584" /><text x="44" y="136" fill="#EDE8F7" font-size="12.5" font-weight="400" text-anchor="start">Rust</text><text x="270.67" y="136" fill="#A99FC0" font-size="12.5" font-weight="400" text-anchor="end">10.3%</text><circle cx="300.67" cy="132" r="5" fill="#3572A5" /><text x="314.67" y="136" fill="#EDE8F7" font-size="12.5" font-weight="400" text-anchor="start">Python</text><text x="541.33" y="136" fill="#A99FC0" font-size="12.5" font-weight="400" text-anchor="end">9.7%</text><circle cx="571.33" cy="132" r="5" fill="#41b883" /><text x="585.33" y="136" fill="#EDE8F7" font-size="12.5" font-weight="400" text-anchor="start">Vue</text><text x="812" y="136" fill="#A99FC0" font-size="12.5" font-weight="400" text-anchor="end">7.3%</text><circle cx="30" cy="158" r="5" fill="#555555" /><text x="44" y="162" fill="#EDE8F7" font-size="12.5" font-weight="400" text-anchor="start">C</text><text x="270.67" y="162" fill="#A99FC0" font-size="12.5" font-weight="400" text-anchor="end">7.2%</text><circle cx="300.67" cy="158" r="5" fill="#f1e05a" /><text x="314.67" y="162" fill="#EDE8F7" font-size="12.5" font-weight="400" text-anchor="start">JavaScript</text><text x="541.33" y="162" fill="#A99FC0" font-size="12.5" font-weight="400" text-anchor="end">1.4%</text><circle cx="571.33" cy="158" r="5" fill="#8B8B8B" /><text x="585.33" y="162" fill="#EDE8F7" font-size="12.5" font-weight="400" text-anchor="start">Other</text><text x="812" y="162" fill="#A99FC0" font-size="12.5" font-weight="400" text-anchor="end">2.1%</text></svg>